<svg width="113" height="62" viewBox="0 0 113 62" fill="none" xmlns="http://www.w3.org/2000/svg">
<rect x="24.5" y="0.5" width="88" height="47" rx="7.5" fill="white"/>
<rect x="24.5" y="0.5" width="88" height="47" rx="7.5" stroke="#DDDDDD"/>
<path d="M44.375 24C44.9181 23.9997 45.4479 24.1679 45.8914 24.4813C46.3349 24.7947 46.6702 25.238 46.8512 25.75H52.25V27.5H46.8512C46.6909 27.9537 46.4088 28.3545 46.036 28.6588C45.6632 28.963 45.214 29.1589 44.7374 29.2251C44.2607 29.2912 43.7751 29.2251 43.3335 29.034C42.8919 28.8428 42.5114 28.5339 42.2335 28.1411C41.9556 27.7483 41.791 27.2866 41.7577 26.8066C41.7244 26.3266 41.8237 25.8466 42.0447 25.4192C42.2657 24.9918 42.6 24.6333 43.011 24.3831C43.422 24.1328 43.8938 24.0003 44.375 24ZM44.375 25.75C44.1429 25.75 43.9204 25.8422 43.7563 26.0063C43.5922 26.1704 43.5 26.3929 43.5 26.625C43.5 26.8571 43.5922 27.0796 43.7563 27.2437C43.9204 27.4078 44.1429 27.5 44.375 27.5C44.6071 27.5 44.8296 27.4078 44.9937 27.2437C45.1578 27.0796 45.25 26.8571 45.25 26.625C45.25 26.3929 45.1578 26.1704 44.9937 26.0063C44.8296 25.8422 44.6071 25.75 44.375 25.75ZM49.625 18.75C50.1062 18.7503 50.578 18.8828 50.989 19.1331C51.4 19.3833 51.7343 19.7418 51.9553 20.1692C52.1763 20.5966 52.2756 21.0766 52.2423 21.5566C52.209 22.0366 52.0444 22.4983 51.7665 22.8911C51.4886 23.2839 51.1081 23.5928 50.6665 23.784C50.2249 23.9751 49.7393 24.0412 49.2626 23.9751C48.786 23.9089 48.3368 23.713 47.964 23.4088C47.5912 23.1045 47.3091 22.7037 47.1488 22.25H41.75V20.5H47.1488C47.3298 19.988 47.6651 19.5447 48.1086 19.2313C48.5521 18.9179 49.0819 18.7497 49.625 18.75ZM49.625 20.5C49.3929 20.5 49.1704 20.5922 49.0063 20.7563C48.8422 20.9204 48.75 21.1429 48.75 21.375C48.75 21.6071 48.8422 21.8296 49.0063 21.9937C49.1704 22.1578 49.3929 22.25 49.625 22.25C49.8571 22.25 50.0796 22.1578 50.2437 21.9937C50.4078 21.8296 50.5 21.6071 50.5 21.375C50.5 21.1429 50.4078 20.9204 50.2437 20.7563C50.0796 20.5922 49.8571 20.5 49.625 20.5Z" fill="#222222"/>
<path d="M63.068 28V19.492H68.36V20.848H64.508V23.236H67.964V24.568H64.508V28H63.068ZM69.7195 28V22.156H71.0995V28H69.7195ZM69.5035 20.104C69.5035 19.588 69.9115 19.192 70.4035 19.192C70.9195 19.192 71.3155 19.588 71.3155 20.104C71.3155 20.62 70.9195 21.004 70.4035 21.004C69.9115 21.004 69.5035 20.62 69.5035 20.104ZM72.8249 28V19.312H74.2169V28H72.8249ZM77.7781 22.156H78.9901V23.392H77.7781V26.104C77.7781 26.62 78.0061 26.836 78.5221 26.836C78.7141 26.836 78.9421 26.8 79.0021 26.788V27.94C78.9181 27.976 78.6661 28.072 78.1501 28.072C77.0581 28.072 76.3981 27.436 76.3981 26.332V23.392H75.3181V22.156H75.6181C76.2421 22.156 76.5181 21.76 76.5181 21.244V20.368H77.7781V22.156ZM84.2021 24.436C84.1661 23.764 83.7221 23.14 82.7621 23.14C81.9101 23.14 81.3701 23.812 81.3341 24.436H84.2021ZM85.5341 26.332C85.2101 27.352 84.2981 28.18 82.8941 28.18C81.3101 28.18 79.9061 27.028 79.9061 25.048C79.9061 23.2 81.2621 21.976 82.7501 21.976C84.5501 21.976 85.6061 23.164 85.6061 25.012C85.6061 25.24 85.5821 25.42 85.5701 25.456H81.2981C81.3341 26.344 82.0421 26.98 82.8941 26.98C83.7461 26.98 84.1661 26.536 84.3581 25.96L85.5341 26.332ZM90.3778 23.536C90.2218 23.512 90.0658 23.5 89.9218 23.5C88.8298 23.5 88.3498 24.112 88.3498 25.216V28H86.9578V22.156H88.3138V23.092C88.5898 22.456 89.2378 22.084 90.0058 22.084C90.1858 22.084 90.3178 22.108 90.3778 22.12V23.536ZM92.2852 26.08C92.3332 26.608 92.7172 27.076 93.4732 27.076C94.0492 27.076 94.3492 26.776 94.3492 26.404C94.3492 26.08 94.1332 25.852 93.6652 25.756L92.8012 25.564C91.7572 25.336 91.2292 24.676 91.2292 23.86C91.2292 22.84 92.1772 21.976 93.3772 21.976C95.0092 21.976 95.5372 23.032 95.6332 23.608L94.4572 23.944C94.3852 23.608 94.1572 23.068 93.3772 23.068C92.8852 23.068 92.5372 23.368 92.5372 23.74C92.5372 24.064 92.7532 24.268 93.1252 24.352L94.0132 24.532C95.1172 24.772 95.6932 25.444 95.6932 26.308C95.6932 27.196 94.9732 28.18 93.4852 28.18C91.8052 28.18 91.1332 27.088 91.0732 26.416L92.2852 26.08Z" fill="#222222"/>
</svg>
