<svg width="258" height="32" viewBox="0 0 258 32" fill="none" xmlns="http://www.w3.org/2000/svg">
<g clip-path="url(#clip0_41_4365)">
<path d="M54.0539 8.04048C54.0539 9.19374 53.1246 10.1224 51.9713 10.1224C50.8181 10.1224 49.8895 9.19374 49.8895 8.04048C49.8895 6.88723 50.7864 5.9586 51.9713 5.9586C53.1572 5.9906 54.0539 6.91955 54.0539 8.04048ZM45.4691 12.2369V12.7495C45.4691 12.7495 44.4764 11.4676 42.3623 11.4676C38.8711 11.4676 36.148 14.1264 36.148 17.8099C36.148 21.4617 38.8391 24.1522 42.3623 24.1522C44.5084 24.1522 45.4691 22.8389 45.4691 22.8389V23.3832C45.4691 23.6395 45.6617 23.8312 45.9177 23.8312H48.5119V11.787H45.9177C45.6617 11.7879 45.4691 12.0126 45.4691 12.2369ZM45.4691 19.9561C44.9891 20.661 44.0278 21.2697 42.8749 21.2697C40.825 21.2697 39.2551 19.9884 39.2551 17.8099C39.2551 15.6317 40.825 14.3504 42.8749 14.3504C43.9961 14.3504 45.0211 14.9911 45.4691 15.6637V19.9561ZM50.4341 11.7879H53.5089V23.8322H50.4341V11.7879ZM96.3676 11.4673C94.2534 11.4673 93.2601 12.7492 93.2601 12.7492V5.9906H90.1853V23.8322H92.7801C93.0364 23.8322 93.2281 23.6079 93.2281 23.3835V22.8392C93.2281 22.8392 94.2214 24.1525 96.3349 24.1525C99.8267 24.1525 102.549 21.4626 102.549 17.8108C102.549 14.1591 99.8267 11.4673 96.3676 11.4673ZM95.8549 21.2373C94.6694 21.2373 93.7407 20.6293 93.2601 19.9241V15.6317C93.7407 14.9911 94.7657 14.3184 95.8549 14.3184C97.9048 14.3184 99.4744 15.5997 99.4744 17.7779C99.4744 19.9561 97.9051 21.2373 95.8549 21.2373ZM88.5841 16.6893V23.8642H85.5086V17.0413C85.5086 15.0557 84.868 14.2544 83.1394 14.2544C82.2107 14.2544 81.2495 14.7351 80.6399 15.44V23.8325H77.5657V11.7882H79.9993C80.2556 11.7882 80.4479 12.0126 80.4479 12.2369V12.7495C81.3448 11.8202 82.5298 11.4676 83.7147 11.4676C85.0603 11.4676 86.1815 11.8526 87.0785 12.6212C88.1671 13.5181 88.5841 14.6711 88.5841 16.6893ZM70.1012 11.4673C67.9877 11.4673 66.9944 12.7492 66.9944 12.7492V5.9906H63.9196V23.8322H66.5138C66.7701 23.8322 66.9624 23.6079 66.9624 23.3835V22.8392C66.9624 22.8392 67.9557 24.1525 70.0692 24.1525C73.561 24.1525 76.2835 21.4626 76.2835 17.8108C76.3155 14.1588 73.593 11.4673 70.1012 11.4673ZM69.5886 21.2373C68.4037 21.2373 67.475 20.6293 66.9944 19.9241V15.6317C67.475 14.9911 68.5 14.3184 69.5886 14.3184C71.6391 14.3184 73.2083 15.5997 73.2083 17.7779C73.2083 19.9561 71.6391 21.2373 69.5886 21.2373ZM61.2607 11.4673C62.1894 11.4673 62.67 11.6279 62.67 11.6279V14.4784C62.67 14.4784 60.1075 13.6135 58.5063 15.4397V23.8638H55.4308V11.7879H58.0256C58.2819 11.7879 58.4736 12.0122 58.4736 12.2366V12.7492C59.0509 12.0762 60.3001 11.4673 61.2607 11.4673ZM29.3257 22.7429C29.1657 22.3586 29.0054 21.9423 28.8454 21.5897C28.5888 21.0133 28.3324 20.4684 28.1088 19.9561L28.0768 19.9241C25.8663 15.1191 23.4964 10.2507 20.9975 5.4463L20.9016 5.25365C20.6387 4.75525 20.3826 4.25336 20.1332 3.74809C19.8126 3.17114 19.4926 2.56315 18.98 1.9862C17.9551 0.704946 16.4815 0 14.9122 0C13.3103 0 11.8691 0.70495 10.8125 1.92189C10.3318 2.49819 9.97921 3.10683 9.65922 3.68377C9.40923 4.18872 9.15311 4.69061 8.89091 5.18934L8.7946 5.38197C6.32809 10.1864 3.92589 15.0551 1.7157 19.8598L1.68338 19.9234C1.45939 20.4367 1.20275 20.981 0.946435 21.557C0.786438 21.9096 0.626441 22.294 0.466444 22.7103C0.0498126 23.8952 -0.078511 25.0165 0.0821258 26.17C0.434439 28.5726 2.03569 30.5898 4.2462 31.4874C5.07915 31.84 5.94409 32 6.84071 32C7.09703 32 7.41703 31.968 7.67366 31.9357C8.73092 31.8077 9.81986 31.4557 10.8771 30.8471C12.1904 30.1101 13.4396 29.0535 14.8489 27.5159C16.2581 29.0535 17.5394 30.1101 18.8206 30.8471C19.8782 31.4557 20.9668 31.8077 22.0238 31.9357C22.2801 31.9683 22.6007 32 22.857 32C23.754 32 24.6506 31.84 25.4512 31.4874C27.6937 30.5898 29.263 28.5406 29.6156 26.17C29.87 25.0491 29.742 23.9285 29.3257 22.7429ZM14.8799 24.4085C13.15 22.2303 12.0288 20.1804 11.6448 18.4512C11.4848 17.7142 11.4525 17.0736 11.5488 16.497C11.6125 15.9843 11.8051 15.5357 12.0614 15.1514C12.67 14.2871 13.695 13.7421 14.8802 13.7421C16.0658 13.7421 17.1228 14.2548 17.6994 15.1514C17.9557 15.5357 18.1477 15.9846 18.2123 16.497C18.308 17.0739 18.276 17.7462 18.116 18.4512C17.7304 20.1484 16.6092 22.1986 14.8799 24.4085ZM27.6598 25.9141C27.4358 27.5796 26.3146 29.0215 24.7453 29.6621C23.9767 29.9821 23.1434 30.0784 22.3111 29.9821C21.5105 29.8858 20.7092 29.6295 19.8769 29.1495C18.7237 28.5082 17.5707 27.5159 16.2252 26.042C18.3391 23.4478 19.6203 21.077 20.1009 18.9635C20.3253 17.9702 20.3576 17.0736 20.2609 16.2403C20.1333 15.4397 19.8446 14.7027 19.3963 14.0621C18.4027 12.6202 16.7368 11.7879 14.8796 11.7879C13.0224 11.7879 11.3565 12.6529 10.3635 14.0621C9.91521 14.7027 9.62658 15.4397 9.49858 16.2403C9.37058 17.0736 9.40226 18.0022 9.65858 18.9635C10.1389 21.077 11.4521 23.4795 13.534 26.074C12.2208 27.5476 11.0355 28.5409 9.88225 29.1815C9.04931 29.6621 8.24901 29.9184 7.44839 30.0141C6.58376 30.1104 5.7505 29.9821 5.01387 29.6941C3.44462 29.0535 2.32337 27.6116 2.09937 25.946C2.00337 25.1454 2.06705 24.3448 2.38769 23.4479C2.48336 23.1272 2.644 22.8072 2.804 22.4229C3.02831 21.9103 3.28399 21.3653 3.54062 20.821L3.57294 20.7573C5.78282 15.9843 8.15301 11.1156 10.6195 6.37523L10.7155 6.1826C10.9722 5.70261 11.2285 5.18998 11.4845 4.70935C11.7408 4.19672 12.0288 3.71609 12.3814 3.29946C13.054 2.53147 13.9506 2.11452 14.9439 2.11452C15.9372 2.11452 16.8338 2.53147 17.5064 3.29946C17.8591 3.71705 18.147 4.19768 18.4034 4.70935C18.66 5.18998 18.9163 5.70261 19.172 6.1826L19.2683 6.37523C21.6972 11.1353 24.0359 15.9409 26.2832 20.7893V20.8214C26.5398 21.3346 26.7638 21.9106 27.0202 22.4239C27.1801 22.8075 27.3405 23.1275 27.4365 23.4482C27.6921 24.2802 27.7881 25.0814 27.6598 25.9141Z" fill="#FF385C"/>
</g>
<defs>
<clipPath id="clip0_41_4365">
<rect width="103" height="32" fill="white"/>
</clipPath>
</defs>
</svg>
