<svg width="18" height="18" viewBox="0 0 18 18" fill="none" xmlns="http://www.w3.org/2000/svg">
<rect width="18" height="18" fill="#222222"/>
<path d="M8.83872 2.24805H9.54185C10.8918 2.24805 11.145 2.2593 11.7862 2.28742C12.5062 2.32117 12.9956 2.43367 13.4231 2.60242C13.8675 2.77117 14.2443 3.00742 14.6212 3.37867C14.9587 3.71617 15.2287 4.1268 15.3975 4.5768L15.4087 4.61055C15.5662 5.0268 15.6787 5.4993 15.7125 6.18555L15.7181 6.41055C15.7462 6.9843 15.7518 7.32742 15.7518 8.88555V9.40305C15.7518 10.8655 15.7406 11.1187 15.7125 11.7824C15.701 12.342 15.5945 12.8955 15.3975 13.4193C15.2287 13.8693 14.9643 14.2799 14.6212 14.6174C14.2831 14.9603 13.8742 15.2252 13.4231 15.3937L13.3893 15.4049C12.9731 15.5624 12.495 15.6749 11.8143 15.703L11.5893 15.7143C11.0156 15.7424 10.6725 15.748 9.11435 15.748H8.59685C7.80351 15.7579 7.01005 15.7448 6.21747 15.7087C5.65794 15.6972 5.10443 15.5907 4.5806 15.3937C4.1306 15.2249 3.71997 14.9605 3.38247 14.6174C3.03959 14.2793 2.77467 13.8704 2.60622 13.4193L2.59497 13.3855C2.40915 12.8804 2.30657 12.3485 2.29122 11.8105L2.2856 11.6024C2.25351 10.7891 2.24225 9.97508 2.25185 9.16117V8.59867C2.25185 7.12492 2.2631 6.87742 2.29122 6.21367C2.32497 5.50492 2.43747 5.01555 2.6006 4.59367L2.60622 4.5768C2.77497 4.1268 3.03935 3.71617 3.38247 3.37867C3.72058 3.03579 4.12948 2.77087 4.5806 2.60242L4.61435 2.59117C5.11945 2.40535 5.65137 2.30277 6.18935 2.28742L6.39747 2.2818C6.97122 2.24805 7.30872 2.24805 8.83872 2.24805ZM9.3506 3.46305H8.6531C7.35935 3.46305 7.01622 3.46867 6.50997 3.49117L6.27372 3.50242C5.6156 3.53055 5.26122 3.64305 5.01935 3.73305C4.70435 3.8568 4.47935 4.00305 4.2431 4.2393C4.0181 4.46992 3.86622 4.6893 3.7481 4.99867L3.73122 5.03242C3.58743 5.42941 3.51137 5.84773 3.50622 6.26992L3.49497 6.52305C3.47247 7.0293 3.46685 7.38367 3.46685 8.7393V9.3468C3.46685 10.8318 3.4781 11.0624 3.50622 11.7262V11.7655C3.53997 12.4012 3.64685 12.7443 3.74247 12.9805C3.8606 13.2955 4.00685 13.5205 4.24872 13.7568C4.47372 13.9818 4.69872 14.1337 5.00247 14.2518L5.03622 14.2687C5.4332 14.4125 5.85153 14.4885 6.27372 14.4937L6.52685 14.5049C7.0331 14.5274 7.38747 14.533 8.7431 14.533H9.3506C10.8356 14.533 11.0662 14.5218 11.73 14.4937H11.7693C12.1848 14.4844 12.5957 14.4045 12.9843 14.2574C13.2768 14.1505 13.5412 13.9762 13.7606 13.7512C13.9856 13.5262 14.1375 13.3012 14.2556 12.9974L14.2725 12.9637C14.4163 12.5667 14.4923 12.1484 14.4975 11.7262L14.5087 11.473C14.5312 10.9668 14.5368 10.6124 14.5368 9.2568V8.64367C14.5368 7.1643 14.5256 6.93367 14.4975 6.26992V6.23055C14.4882 5.81508 14.4083 5.40421 14.2612 5.01555C14.1543 4.72305 13.98 4.45867 13.755 4.2393C13.5429 4.0212 13.2856 3.85223 13.0012 3.7443L12.9675 3.72742C12.5778 3.58538 12.1672 3.50934 11.7525 3.50242L11.4937 3.49117C10.9875 3.46867 10.65 3.46305 9.35622 3.46305H9.3506ZM9.00185 5.53305C9.92082 5.53305 10.8022 5.89811 11.452 6.54792C12.1018 7.19774 12.4668 8.07907 12.4668 8.99805C12.4668 9.91702 12.1018 10.7984 11.452 11.4482C10.8022 12.098 9.92082 12.463 9.00185 12.463C8.08287 12.463 7.20153 12.098 6.55172 11.4482C5.90191 10.7984 5.53685 9.91702 5.53685 8.99805C5.53685 8.07907 5.90191 7.19774 6.55172 6.54792C7.20153 5.89811 8.08287 5.53305 9.00185 5.53305ZM9.00185 6.74805C8.40511 6.74805 7.83281 6.9851 7.41086 7.40706C6.9889 7.82901 6.75185 8.40131 6.75185 8.99805C6.75185 9.59478 6.9889 10.1671 7.41086 10.589C7.83281 11.011 8.40511 11.248 9.00185 11.248C9.59858 11.248 10.1709 11.011 10.5928 10.589C11.0148 10.1671 11.2518 9.59478 11.2518 8.99805C11.2518 8.40131 11.0148 7.82901 10.5928 7.40706C10.1709 6.9851 9.59858 6.74805 9.00185 6.74805ZM12.6018 4.58242C12.8167 4.58242 13.0227 4.66776 13.1746 4.81967C13.3265 4.97157 13.4118 5.1776 13.4118 5.39242C13.4118 5.60725 13.3265 5.81327 13.1746 5.96518C13.0227 6.11708 12.8167 6.20242 12.6018 6.20242C12.387 6.20242 12.181 6.11708 12.0291 5.96518C11.8772 5.81327 11.7918 5.60725 11.7918 5.39242C11.7918 5.1776 11.8772 4.97157 12.0291 4.81967C12.181 4.66776 12.387 4.58242 12.6018 4.58242Z" fill="white"/>
</svg>
