<svg width="12" height="12" viewBox="0 0 12 12" fill="none" xmlns="http://www.w3.org/2000/svg">
<g clip-path="url(#clip0_2232_2092)">
<path fill-rule="evenodd" clip-rule="evenodd" d="M5.66239 0.592569L4.11364 3.92257L0.416141 4.39882C0.344608 4.40776 0.277168 4.43713 0.221896 4.48341C0.166625 4.52969 0.125865 4.59092 0.104497 4.65977C0.0831301 4.72862 0.082061 4.80217 0.101418 4.87162C0.120775 4.94106 0.159738 5.00345 0.213641 5.05132L2.95114 7.51507L2.21239 11.2088C2.19848 11.2794 2.20518 11.3526 2.2317 11.4195C2.25822 11.4864 2.30344 11.5443 2.36196 11.5862C2.42048 11.6281 2.48983 11.6523 2.56172 11.6559C2.63361 11.6594 2.70501 11.6422 2.76739 11.6063L5.99989 9.73132L9.23614 11.6063C9.29852 11.6422 9.36992 11.6594 9.44182 11.6559C9.51371 11.6523 9.58305 11.6281 9.64157 11.5862C9.70009 11.5443 9.74531 11.4864 9.77183 11.4195C9.79835 11.3526 9.80506 11.2794 9.79114 11.2088L9.05239 7.51507L11.7899 5.05132C11.8427 5.003 11.8806 4.94057 11.8991 4.87141C11.9175 4.80224 11.9158 4.72924 11.8942 4.66101C11.8725 4.59279 11.8317 4.5322 11.7767 4.4864C11.7217 4.44061 11.6547 4.41152 11.5836 4.40257L7.88614 3.92257L6.34114 0.592569C6.31131 0.527098 6.26328 0.47159 6.20277 0.432667C6.14226 0.393743 6.07184 0.373047 5.99989 0.373047C5.92795 0.373047 5.85752 0.393743 5.79701 0.432667C5.7365 0.47159 5.68847 0.527098 5.65864 0.592569H5.66239Z" fill="#222222"/>
</g>
<defs>
<clipPath id="clip0_2232_2092">
<rect width="12" height="12" fill="white"/>
</clipPath>
</defs>
</svg>
