<svg width="18" height="18" viewBox="0 0 18 18" fill="none" xmlns="http://www.w3.org/2000/svg">
<rect width="18" height="18" fill="#222222"/>
<path d="M10.1869 4.34141C9.70562 4.59941 9.32071 5.00612 9.08957 5.50084C8.85843 5.99555 8.79347 6.55175 8.90437 7.08641C7.91688 7.04289 6.95014 6.78845 6.06917 6.3402C5.1882 5.89195 4.4134 5.26028 3.79688 4.48766C3.62913 4.75536 3.5161 5.05365 3.46433 5.36529C3.41256 5.67693 3.42306 5.99574 3.49525 6.30329C3.56743 6.61085 3.69985 6.90105 3.88486 7.15712C4.06987 7.41318 4.3038 7.63004 4.57313 7.79516C4.185 7.79516 3.79687 7.72204 3.44812 7.54766C3.46177 8.11265 3.66244 8.65716 4.01871 9.09587C4.37498 9.53459 4.86671 9.84274 5.41688 9.97204C5.04975 10.0716 4.66431 10.0832 4.29188 10.0058C4.46218 10.5022 4.77818 10.9357 5.19862 11.2498C5.61907 11.5639 6.12443 11.7439 6.64875 11.7664C6.13933 12.1871 5.54673 12.4952 4.90982 12.6707C4.2729 12.8462 3.60609 12.885 2.95312 12.7845C4.04037 13.5106 5.30929 13.9176 6.61603 13.9593C7.92276 14.001 9.21505 13.6758 10.3464 13.0205C11.4777 12.3653 12.4029 11.4062 13.0169 10.2519C13.631 9.09772 13.9094 7.79455 13.8206 6.49016C14.315 6.14671 14.7326 5.70422 15.0469 5.19079C14.6033 5.4047 14.1287 5.54708 13.6406 5.61266C14.1686 5.29001 14.5668 4.79237 14.7656 4.20641C14.2762 4.48766 13.7475 4.69579 13.185 4.80266C12.8024 4.41008 12.3027 4.15232 11.761 4.06812C11.2193 3.98393 10.665 4.07786 10.1812 4.33579L10.1869 4.34141Z" fill="white"/>
</svg>
