<svg width="8" height="10" viewBox="0 0 8 10" fill="none" xmlns="http://www.w3.org/2000/svg">
<path d="M1.82 4.974C1.61 4.484 1.4 3.98 1.4 3.322C1.4 1.824 2.618 0.717999 4.172 0.717999C6.342 0.717999 6.986 2.09 7.056 3.21L5.684 3.448C5.67 2.398 5.054 1.922 4.2 1.922C3.458 1.922 2.772 2.412 2.772 3.322C2.772 3.924 2.996 4.428 3.234 4.974H5.95V6.178H3.598C3.612 6.304 3.626 6.43 3.626 6.556C3.626 7.55 3.136 8.348 2.296 8.782H5.138C6.09 8.782 6.482 8.068 6.482 7.298L7.798 7.494C7.798 8.95 6.93 10 5.474 10H0.756V8.67C1.708 8.278 2.296 7.494 2.296 6.71C2.296 6.5 2.282 6.332 2.24 6.178H0.84V4.974H1.82Z" fill="#222222"/>
</svg>
